<svg xmlns="http://www.w3.org/2000/svg" viewBox="0 0 1148.46 354.99"><defs><style>.cls-1{fill:#1164cd;}.cls-2{fill:#d6dfea;}.cls-3{fill:#00d122;}.cls-4{fill:#4b6687;}</style></defs><g id="Layer_2" data-name="Layer 2"><g id="Layer_1-2" data-name="Layer 1"><path class="cls-1" d="M70.09,277c-19-25.55-37.92-50.57-53-78.28C4,174.52-1.9,148.77.54,121.43,5.5,65.66,42,21.27,95.8,5.49,163.15-14.26,238.69,20.34,261.74,92a145.31,145.31,0,0,1,6.78,40.59c.1,3.35-.87,4.29-4.15,4.15-6-.26-12-.27-18,0-3.31.15-4.07-.92-4.16-4.17-.65-22.43-6.69-43.19-20.17-61.4C204.73,47.7,181.5,33.69,152.88,28.85c-37.77-6.4-70.4,4.35-97.55,31-16.26,16-25.4,35.78-28,58.53-4.23,36.55,6.4,67.87,32.85,93.64,9.39,9.15,20.38,16,32.3,21.27,2.58,1.15,3.19,2,1.61,4.53-7.68,12.42-15.18,24.95-22.75,37.44C71,275.85,70.54,276.35,70.09,277Z"/><path class="cls-1" d="M256.63,185.76A335.54,335.54,0,0,1,231.76,229a1328.64,1328.64,0,0,1-90.5,120.33c-.64.77-1.32,1.5-2,2.23-4.29,4.61-5.33,4.64-9.52.07q-15.34-16.77-29.67-34.41c-1.63-2-1.82-3.45-.47-5.66,8.78-14.47,17.7-28.87,26-43.59,7.12-12.56,18.53-16.39,31.74-17,20.83-1,36.62-10.51,47.89-27.79,4.16-6.39,7.8-13.12,12-19.52C226.39,189.54,240.53,186.31,256.63,185.76Z"/><path class="cls-2" d="M518.83,102.86c15-19.2,44.26-17.22,56.48,1.89,10-13.49,23.91-18.36,39.69-13.93,13.81,3.88,23.12,16,23.31,31.16.25,20.82,0,41.66.13,62.48,0,2.42-.37,3.55-3.21,3.43-6-.25-12-.24-18,0-2.8.11-3.2-.91-3.18-3.39q.16-21.5,0-43c0-5-.3-10-.77-15-.93-9.78-7.57-15.82-16.73-15.49-9.64.35-17.09,7.66-17.14,17.18q-.15,27.75,0,55.49c0,3.12-.56,4.36-4,4.17-5.65-.32-11.33-.26-17,0-3,.13-3.49-.88-3.47-3.64.14-16.17.11-32.33,0-48.49a68.57,68.57,0,0,0-.67-8.94c-1.42-10.39-8-15.47-19.16-14.93-8.93.42-15.74,7.62-15.81,17.22q-.21,27.24.05,54.49c0,3.6-1,4.47-4.45,4.3-5.82-.29-11.66-.17-17.49,0-2.32,0-3.16-.53-3.15-3q.12-45,0-90c0-2.4.64-3.17,3-3.1,5.83.15,11.68.26,17.5,0,3.38-.17,4.43.91,4,4.17A57.69,57.69,0,0,0,518.83,102.86Z"/><path class="cls-2" d="M796.82,159.82c5.87-19.54,11.76-38.78,17.39-58.09,2.85-9.75,2.65-9.94,12.48-9.77,4.91.09,11-2.11,14.39,1,3,2.81,3.24,8.72,4.58,13.3q7.51,25.58,15,51.16a10.35,10.35,0,0,0,1.15,1.78c3.91-15,7.7-29.58,11.47-44.11,1.7-6.56,3.35-13.12,5.07-19.68.62-2.39,1.61-3.81,4.73-3.65,7,.36,14,.11,21.38.11C899.24,109.09,894.25,126,889,142.8c-4.28,13.83-8.89,27.56-13.16,41.4-.89,2.86-2.13,3.93-5.21,3.79-6-.27-12-.28-18,0-3.19.16-4.47-.92-5.55-3.91-6.26-17.23-12.6-34.43-17.38-52.15-.17-.62-.49-1.21-1-2.45-4.84,17.21-10.3,33.56-16.36,49.72-3.27,8.69-3.22,8.81-12.61,8.67-5.77-.08-13,2.32-16.91-.95-3.66-3-4-10.15-5.66-15.51-7.83-25.2-15.54-50.44-23.5-75.6-1.16-3.67-.2-4.13,3.12-4,5.83.23,11.67.26,17.49,0,3.23-.15,4.53.89,5.34,4.06,5.2,20.32,10.63,40.58,16,60.85C795.91,157.68,796.35,158.58,796.82,159.82Z"/><path class="cls-2" d="M713.74,147.36c-10.32,0-20.64.16-31-.09-3.32-.08-3.81.93-3.48,3.91a21.64,21.64,0,0,0,16.81,19.24c10.28,2.5,20.82-1.09,25.87-9.33,1.7-2.79,3.06-3.47,6.17-2.49a104.18,104.18,0,0,0,14,3.19c3.16.54,3.08,1.92,1.94,4.25-6.84,14.1-18.27,22.25-33.5,24.44-23.61,3.4-45-7.11-53.68-30.46-9.08-24.31-.78-51.77,19.92-64,25.56-15.12,65-5.7,70.6,34,.66,4.64.77,9.25,1,13.89.13,2.94-.89,3.57-3.68,3.52-10.32-.18-20.64-.07-31-.07Zm-12.65-38.07c-10.58.15-18.66,6.85-20.88,17.13-.41,1.89-.87,3,1.92,2.94q18.45-.2,36.92,0c2.94.05,2.67-1.11,2.3-3.2C719.53,115.94,711.47,109.15,701.09,109.29Z"/><path class="cls-2" d="M1114.28,147.33c-10.32,0-20.65.13-31-.07-3.3-.07-4.45.75-3.83,4.15,1.88,10.47,8,17.24,17.58,19.19,10.58,2.15,20.24-1.47,25.68-10,1.37-2.16,2.24-3,5-2.12a85.7,85.7,0,0,0,14,3.21c4.24.6,3.61,2.52,2.23,5.23-7,13.77-18.56,21.66-33.47,23.58-20.25,2.59-38.21-2.73-49.87-23-14.67-25.54-6.78-63.38,23.48-75,31.16-12,63,9.1,64.25,42.46.46,12.36.46,12.36-11.57,12.38C1129.26,147.34,1121.77,147.33,1114.28,147.33Zm-13-18v0c6,0,12-.09,17.92,0,2.32,0,3.2-.15,2.59-3-2.29-10.42-9.44-16.8-19.58-17-10.79-.22-19.47,6.47-21.75,16.65-.59,2.64.15,3.46,2.91,3.36C1089.32,129.17,1095.3,129.31,1101.27,129.31Z"/><path class="cls-2" d="M1001.44,89.56c10.51,0,20.38,2.14,29,8.51,5.45,4,8.55,9.56,10.6,15.84.92,2.81.07,4.2-2.92,4.56-6.25.75-12.5,1.57-18.71,2.58-1.88.3-2.81,0-3-1.92-.82-6.7-5.31-9.32-11.35-10.67a20.43,20.43,0,0,0-13.54,1.64c-3.83,1.81-5.47,5.09-5.18,9.38.28,4,2.62,6.24,6.26,7.37,8.57,2.67,17.61,2.93,26.31,4.93,10.83,2.5,20,7.1,23.5,18.7a29.11,29.11,0,0,1-11.12,32.14c-18.57,13-51.16,10.71-65.48-4.6a32.42,32.42,0,0,1-7.41-13.79c-.51-1.82-.75-3.54,2.52-3.85,6.2-.59,12.33-2,18.47-3.13,1.26-.23,1.54.27,2.1,1.31,6.11,11.51,14.18,15,27.36,12.43,4.61-.9,8.29-2.66,9.34-7.55,1-4.64-1.37-8.35-6.44-10.47-6.51-2.73-13.57-2.82-20.4-4A79.6,79.6,0,0,1,977,145.48c-9.72-3.63-15.67-10.55-16.6-21-1-11.41,3.08-20.82,12.63-27.45C981.58,91.16,991.31,89.51,1001.44,89.56Z"/><path class="cls-2" d="M395.42,134.85c0,16.32-.09,32.63.08,49,0,3.25-.79,4.23-4.08,4.08a165.72,165.72,0,0,0-18,0c-3.73.22-4.24-1.18-4.22-4.48.12-32.29,0-64.59.17-96.89,0-3.92-1-5-4.86-4.85-10.15.29-20.32-.06-30.47.2-3.41.09-4.15-1-4-4.15.26-5.31.18-10.65,0-16-.07-2.22.58-2.79,2.77-2.78q49.45.09,98.9,0c2.37,0,2.71.95,2.68,2.93-.09,5.5-.2,11,.05,16.48.13,3-1,3.52-3.69,3.48-10.15-.14-20.32.2-30.46-.18-4.38-.17-5.07,1.27-5,5.23C395.56,102.88,395.42,118.87,395.42,134.85Z"/><path class="cls-3" d="M88.91,302.32c-3.23-4.24-7.71-7.73-8.62-12S84.2,282.1,86.52,278q8.52-14.91,17.37-29.61c11-18.27,28.06-25.7,48.44-26.38,13.95-.47,24-6.5,30.91-18.38,3.58-6.17,7-12.43,10.91-18.42,11.88-18.41,29-27.73,50.81-28.31,5.83-.16,11.66.07,17.49-.09,2.48-.07,3.09.53,2.59,3.07-2.52,12.73-2.45,12.88-15.54,12.76-21.17-.2-37.12,8.5-47.47,27.14-2.17,3.91-4.62,7.68-6.66,11.65-8.91,17.38-23.39,25.53-42.6,26.26-17.74.67-31.31,8.19-40.12,24.1C105.18,275.3,97.09,288.43,88.91,302.32Z"/><path class="cls-4" d="M419.5,310.31C404.24,332.94,372,329.26,357,315.55c-22.24-20.31-21.16-60.56,2.46-79.23,15.17-12,39.26-13.08,55.23-2.46,7.95,5.28,13,12.51,14.71,22,.47,2.64.16,4.25-3.05,3.66a4.44,4.44,0,0,0-1.5,0c-4.93.79-7.62-.47-9.38-6-3.78-11.83-18.88-16.74-30.08-15.43-24.91,2.9-33.77,25.28-31.7,43.62,1.62,14.37,8,25.65,22,31.23,15.25,6.07,38.2.57,42.42-20.21.74-3.61.26-5.4-4.18-5.11-6.48.41-13-.08-19.49.17-2.95.12-3.8-.82-3.46-3.59a27.72,27.72,0,0,0,0-5c-.1-1.79.69-2.18,2.37-2.17,11.5.07,23,.09,34.48,0,2.21,0,2.36,1,2.36,2.73,0,14-.07,28,0,42,0,2.25-.69,3-2.86,2.75a30.51,30.51,0,0,0-5.49,0c-2,.17-2.57-.64-2.49-2.58C419.6,318.27,419.5,314.61,419.5,310.31Z"/><path class="cls-2" d="M133.75,159c-15-.07-25.68-12.68-23.23-28.21.51-3.22-.45-4.77-2.42-6.68q-12.76-12.31-25.38-24.8c-5.09-5-4.92-10,.41-14.42,3.61-3,6.85-2.87,10.54.71,8.61,8.35,17.31,16.62,25.64,25.24,2.63,2.72,4.85,3,8.16,1.84a19.36,19.36,0,0,1,15.93.88c2.5,1.31,3.87.93,5.83-1,14.21-14.29,28.59-28.42,42.88-42.63,2.87-2.86,5.93-4.18,9.8-2.12a7.85,7.85,0,0,1,4.5,8.61c-.33,2.55-2.25,4-3.89,5.6Q181.18,103,159.78,124c-1.77,1.73-2.79,3.27-2.26,6C160.61,145.74,149.62,159,133.75,159Zm9.67-23.69a9.1,9.1,0,0,0-9.27-9.42,9.52,9.52,0,0,0-9.6,9.32c0,4.83,4.78,9.45,9.73,9.4C139.06,144.54,143.31,140.2,143.42,135.28Z"/><path class="cls-4" d="M588.71,285.19c-8,12-15.81,23.38-23.21,35-2.15,3.37-4.47,4.79-8.37,4.34a70.35,70.35,0,0,0-8.1-.06c-.32-2.06,1.4-3.2,2.33-4.6,9.24-14,18.52-28,28-41.84,1.58-2.31,1.58-3.7,0-5.95-10.08-14.19-20-28.5-30.34-43.35,4.91,0,9.31.17,13.68-.06,2.51-.14,3,1.72,4,3.13,7.43,10.82,14.8,21.68,22.32,32.72,2.76-2,4-5.16,5.78-7.8,5.49-7.92,11-15.86,16.1-24,1.91-3,3.94-4.43,7.55-4a97.11,97.11,0,0,0,10,.07c-9,12.93-17.74,25.56-26.54,38.17-5.39,7.74-5.38,7.7-.29,15.36,9.16,13.81,18.28,27.65,27.9,42.22-4.76,0-8.67-.23-12.53.07-2.74.22-3.36-1.8-4.38-3.32C604.72,309.49,597,297.69,588.71,285.19Z"/><path class="cls-4" d="M464.94,276.48c0-14.66.1-29.31-.08-44,0-3,.58-3.93,3.75-3.86,10.82.26,21.65.13,32.47.21,7.3,0,13.83,2.87,19.45,7,9.63,7.16,13.16,20.13,9.49,31.88a29,29,0,0,1-25.52,20c-7.8.49-15.63.67-23.45.67-3,0-4,.59-3.92,3.81.25,9.48,0,19,.18,28.47.07,3.09-.74,3.89-3.84,3.84-8.37-.12-8.38.05-8.39-8.12q0-20,0-40Zm12.19-18h0c0,5.32-.05,10.65,0,16,0,1.11-.79,3.18,1.41,3,9.47-.85,19.19,1.95,28.42-2.24,8.11-3.68,12.13-10.41,11.37-19.58-.6-7.31-6.18-13-14.6-14.88-8.06-1.79-16.25-.52-24.37-.95-2.19-.11-2.36,1-2.34,2.73C477.18,247.79,477.13,253.11,477.13,258.44Z"/><path class="cls-2" d="M474.34,139.81c0,14.63-.09,29.26.07,43.89,0,3.12-.53,4.39-4,4.2-5.8-.32-11.64-.21-17.45,0-2.62.07-3.74-.35-3.73-3.41q.18-44.64,0-89.29c0-2.46.4-3.54,3.2-3.44q9.23.34,18.46,0c3-.11,3.5,1,3.48,3.69C474.28,110.21,474.34,125,474.34,139.81Z"/><path class="cls-2" d="M917.94,139.4c0-14.64.13-29.29-.09-43.93-.05-3.24.9-3.85,3.85-3.74,6,.23,12,.16,18,0,2.3,0,3.13.48,3.12,3q-.13,45.18,0,90.36c0,2.34-.82,2.76-2.87,2.73-6.15-.1-12.32-.17-18.47,0-2.79.09-3.61-.66-3.58-3.55C918,169.35,918,154.38,917.94,139.4Z"/><path class="cls-2" d="M461.52,51.58c10,.06,15,4.6,14.92,13-.06,7.08-4.41,11.77-11.51,12.3a43.4,43.4,0,0,1-5.47,0c-7.68-.38-12.2-5.11-12.16-12.66s4.61-12.15,12.21-12.61C460.34,51.62,461.17,51.59,461.52,51.58Z"/><path class="cls-2" d="M930.16,77c-9,0-14.52-4.8-14.46-12.69s5.4-12.74,14.42-12.77c9.54,0,14.62,4.49,14.57,13C944.65,72.57,939.47,77,930.16,77Z"/><path class="cls-1" d="M141.21,46.58c0,1.5,0,3,0,4.49-.05,7-1.84,8.48-8.72,7.87-3.21-.28-4.82-1.92-4.89-5-.1-4.82-.13-9.65,0-14.48.08-4,2.64-4.83,6.11-4.75s7-.42,7.45,4.37c.23,2.48,0,5,0,7.49Z"/><path class="cls-1" d="M45.84,128.77h4c7.2,0,9.13,2.44,7.58,9.55-.54,2.47-2.13,3.6-4.62,3.59-4.81,0-9.63.09-14.43,0-4.33-.11-4.9-3.12-4.85-6.59s.4-6.47,4.87-6.51C40.87,128.76,43.36,128.77,45.84,128.77Z"/></g></g></svg>